<?xml version="1.0" encoding="UTF-8" standalone="no"?>
<svg
   xmlns:dc="http://purl.org/dc/elements/1.1/"
   xmlns:cc="http://creativecommons.org/ns#"
   xmlns:rdf="http://www.w3.org/1999/02/22-rdf-syntax-ns#"
   xmlns:svg="http://www.w3.org/2000/svg"
   xmlns="http://www.w3.org/2000/svg"
   xmlns:xlink="http://www.w3.org/1999/xlink"
   xmlns:sodipodi="http://sodipodi.sourceforge.net/DTD/sodipodi-0.dtd"
   xmlns:inkscape="http://www.inkscape.org/namespaces/inkscape"
   height="660"
   width="600"
   version="1.0"
   id="svg2"
   sodipodi:version="0.32"
   inkscape:version="0.46"
   sodipodi:docname="gallo.svg"
   sodipodi:docbase="C:\Documents and Settings\Moi\Bureau\PROVISOIRE\HERALDIQUE\A insérer"
   inkscape:export-filename="/Users/olivier/Desktop/Blason Rouge/Blason_Vide_3D.png"
   inkscape:export-xdpi="144"
   inkscape:export-ydpi="144"
   inkscape:output_extension="org.inkscape.output.svg.inkscape">
  <metadata
     id="metadata49">
    <rdf:RDF>
      <cc:Work
         rdf:about="">
        <dc:format>image/svg+xml</dc:format>
        <dc:type
           rdf:resource="http://purl.org/dc/dcmitype/StillImage" />
        <dc:title>Blason de Vogüé</dc:title>
        <dc:date>16 décembre 2006</dc:date>
        <dc:creator>
          <cc:Agent>
            <dc:title>Orror (Utlisateur Wikipedia : http://fr.wikipedia.org/wiki/Utilisateur:Orror)</dc:title>
          </cc:Agent>
        </dc:creator>
        <cc:license
           rdf:resource="http://creativecommons.org/licenses/by-sa/2.5/" />
        <dc:language>fr</dc:language>
        <dc:subject>
          <rdf:Bag />
        </dc:subject>
        <dc:description>d'azur  au coq d'or crêté et barbé de gueules</dc:description>
        <dc:source />
      </cc:Work>
      <cc:License
         rdf:about="http://creativecommons.org/licenses/by-sa/2.5/">
        <cc:permits
           rdf:resource="http://web.resource.org/cc/Reproduction" />
        <cc:permits
           rdf:resource="http://web.resource.org/cc/Distribution" />
        <cc:requires
           rdf:resource="http://web.resource.org/cc/Notice" />
        <cc:requires
           rdf:resource="http://web.resource.org/cc/Attribution" />
        <cc:permits
           rdf:resource="http://web.resource.org/cc/DerivativeWorks" />
        <cc:requires
           rdf:resource="http://web.resource.org/cc/ShareAlike" />
      </cc:License>
    </rdf:RDF>
  </metadata>
  <sodipodi:namedview
     inkscape:window-height="744"
     inkscape:window-width="1280"
     inkscape:pageshadow="2"
     inkscape:pageopacity="0.0"
     guidetolerance="10.0"
     gridtolerance="10.0"
     objecttolerance="10.0"
     borderopacity="1.0"
     bordercolor="#666666"
     pagecolor="#ffffff"
     id="base"
     showgrid="false"
     height="660px"
     inkscape:zoom="0.81666667"
     inkscape:cx="159.18367"
     inkscape:cy="330"
     inkscape:window-x="-4"
     inkscape:window-y="-4"
     inkscape:current-layer="layer2"
     showguides="true"
     inkscape:guide-bbox="true" />
  <desc
     id="desc4">Flag of Canton of Valais (Wallis)</desc>
  <defs
     id="defs6">
    <inkscape:perspective
       sodipodi:type="inkscape:persp3d"
       inkscape:vp_x="0 : 330 : 1"
       inkscape:vp_y="0 : 1000 : 0"
       inkscape:vp_z="600 : 330 : 1"
       inkscape:persp3d-origin="300 : 220 : 1"
       id="perspective61" />
    <linearGradient
       id="linearGradient2893">
      <stop
         style="stop-color: white; stop-opacity: 0.313726;"
         offset="0"
         id="stop2895" />
      <stop
         id="stop2897"
         offset="0.19"
         style="stop-color: white; stop-opacity: 0.25098;" />
      <stop
         style="stop-color: rgb(107, 107, 107); stop-opacity: 0.12549;"
         offset="0.60000002"
         id="stop2901" />
      <stop
         style="stop-color: black; stop-opacity: 0.12549;"
         offset="1"
         id="stop2899" />
    </linearGradient>
    <linearGradient
       id="linearGradient2885">
      <stop
         id="stop2887"
         offset="0"
         style="stop-color: white; stop-opacity: 1;" />
      <stop
         style="stop-color: white; stop-opacity: 1;"
         offset="0.22857143"
         id="stop2891" />
      <stop
         id="stop2889"
         offset="1"
         style="stop-color: black; stop-opacity: 1;" />
    </linearGradient>
    <linearGradient
       id="linearGradient2955">
      <stop
         id="stop2867"
         offset="0"
         style="stop-color: rgb(253, 0, 0); stop-opacity: 1;" />
      <stop
         style="stop-color: rgb(231, 114, 117); stop-opacity: 0.658824;"
         offset="0.5"
         id="stop2873" />
      <stop
         style="stop-color: black; stop-opacity: 0.322917;"
         offset="1"
         id="stop2959" />
    </linearGradient>
    <radialGradient
       inkscape:collect="always"
       xlink:href="#linearGradient2955"
       id="radialGradient2961"
       cx="225.52438"
       cy="218.90099"
       fx="225.52438"
       fy="218.90099"
       r="300"
       gradientTransform="matrix(-0.000416794, 2.18287, -1.88423, -0.000359956, 615.597, -289.121)"
       gradientUnits="userSpaceOnUse" />
    <polygon
       id="star"
       transform="scale(53)"
       points="0,-1 0.587785,0.809017 -0.951057,-0.309017 0.951057,-0.309017 -0.587785,0.809017 0,-1" />
    <clipPath
       id="clip">
      <path
         d="M 0,-200 L 0,600 L 300,600 L 300,-200 L 0,-200 z "
         id="path10" />
    </clipPath>
    <radialGradient
       inkscape:collect="always"
       xlink:href="#linearGradient2955"
       id="radialGradient1911"
       gradientUnits="userSpaceOnUse"
       gradientTransform="matrix(-0.000416794, 2.18287, -1.88423, -0.000359956, 615.597, -289.121)"
       cx="225.52438"
       cy="218.90099"
       fx="225.52438"
       fy="218.90099"
       r="300" />
    <radialGradient
       inkscape:collect="always"
       xlink:href="#linearGradient2955"
       id="radialGradient2865"
       gradientUnits="userSpaceOnUse"
       gradientTransform="matrix(0, 1.74872, -1.59316, -1.04977e-07, 551.788, -191.29)"
       cx="225.52438"
       cy="218.90099"
       fx="225.52438"
       fy="218.90099"
       r="300" />
    <radialGradient
       inkscape:collect="always"
       xlink:href="#linearGradient2955"
       id="radialGradient2871"
       gradientUnits="userSpaceOnUse"
       gradientTransform="matrix(0, 1.38624, -1.32329, -5.74113e-08, -158.082, -109.541)"
       cx="225.52438"
       cy="218.90099"
       fx="225.52438"
       fy="218.90099"
       r="300" />
    <radialGradient
       inkscape:collect="always"
       xlink:href="#linearGradient2893"
       id="radialGradient3163"
       gradientUnits="userSpaceOnUse"
       gradientTransform="matrix(1.35322, 0, 0, 1.34893, -77.6293, -85.7469)"
       cx="456.7114"
       cy="103.7849"
       fx="456.7114"
       fy="103.7849"
       r="300" />
  </defs>
  <g
     inkscape:groupmode="layer"
     id="layer3"
     inkscape:label="Sfondo"
     style="display:inline"
     sodipodi:insensitive="true">
    <path
       id="path2855"
       style="fill:#f6f1f0;fill-opacity:1;fill-rule:evenodd;stroke:none;stroke-width:1px;stroke-linecap:butt;stroke-linejoin:miter;stroke-opacity:1"
       d="M 300,658.5 C 300,658.5 598.50001,546.17969 598.50001,260.72817 C 598.50001,-24.723354 598.50001,2.1764765 598.50001,2.1764765 L 1.5,2.1764765 L 1.5,260.72817 C 1.5,546.17969 300,658.5 300,658.5 z"
       sodipodi:nodetypes="cccccc" />
  </g>
  <g
     inkscape:groupmode="layer"
     id="layer4"
     inkscape:label="Gallo"
     style="display:inline"
     sodipodi:insensitive="true">
    <g
       id="g2922">
      <g
         style="fill:#ffff00;stroke:#000000;stroke-width:4.22021008;stroke-opacity:1"
         transform="matrix(0.710833,0,0,0.710897,64.6741,-66.3957)"
         id="g1990" />
    </g>
    <g
       style="opacity:1;display:inline"
       id="g3200"
       transform="translate(6.5240878,-66.511011)">
      <path
         id="path2519"
         d="M 264.849,547.499 C 237.354,542.094 228.787,530.593 226.496,526.331 C 226.898,525.652 227.292,524.978 227.668,524.311 C 236.101,509.362 247.6,488.281 247.6,483.489 C 247.6,478.699 227.476,472.757 227.476,472.757 C 227.476,472.757 219.81,502.271 207.162,524.886 C 195.842,545.125 188.513,559.291 181.808,562.045 L 181.808,562.045 C 177.631,563.416 175.06,557.657 166.651,551.262 C 158.242,544.865 156.661,541.272 152.062,540.266 C 142.417,538.156 134.813,547.453 134.813,547.453 C 141.711,544.865 148.982,544.701 148.396,548.099 C 147.678,552.267 153.355,556.507 157.955,558.232 C 160.348,559.13 162.327,560.876 163.726,562.422 C 158.472,562.24 153.583,561.83 151.2,560.914 C 146.217,558.999 128.202,552.291 117.852,565.132 C 117.852,565.132 126.094,561.874 131.46,563.982 C 131.46,563.982 131.077,573.948 138.551,573.948 C 146.025,573.948 145.258,569.347 155.224,575.29 C 155.224,575.29 154.437,577.488 149.835,578.787 C 146.5,579.729 140.851,579.338 136.203,581.434 C 130.222,584.817 124.879,589.964 123.794,597.712 C 123.794,597.712 130.645,588.872 136.826,591.962 C 141.426,594.262 145.411,596.991 151.775,592.921 C 154.434,591.22 153.787,586.261 160.291,585.362 C 166.796,584.464 181.672,578.786 185.984,576.343 C 190.296,573.9 196.75,572.731 202.945,580.366 C 206.035,584.175 204.239,590.931 212.791,590.931 C 212.791,590.931 214.636,595.603 209.653,602.311 C 209.653,602.311 219.044,600.969 219.044,588.128 C 219.044,581.612 216.36,576.439 211.378,573.946 C 206.395,571.456 203.903,566.663 203.903,563.789 C 203.903,559.689 209.969,551.04 216.568,541.469 C 240.306,556.525 264.849,547.499 264.849,547.499 z"
         style="fill:#e20909;fill-opacity:1;stroke:#000000;stroke-width:3;stroke-linecap:round;stroke-linejoin:round;stroke-miterlimit:4;stroke-dasharray:none" />
      <path
         id="path2521"
         d="M 405.903,581.997 C 401.303,580.655 398.811,585.256 395.361,583.723 C 391.911,582.189 383.863,583.148 377.538,570.115 C 376.1,567.151 374.171,562.938 371.948,558.03 C 397.684,553.123 412.514,533.874 412.514,533.874 C 384.79,549.162 366.803,541.554 363.806,540.07 C 357.705,526.728 351.112,512.783 346.3,504.763 C 337.101,489.433 326.56,512.812 326.56,512.812 C 326.56,512.812 359.273,565.675 364.27,579.264 C 364.27,581.895 364.602,585.255 347.449,583.531 C 330.295,581.806 335.759,577.397 324.452,577.397 C 313.144,577.397 309.695,592.156 309.695,592.156 C 319.276,584.874 321.385,584.681 325.217,591.388 C 329.05,598.096 336.715,591.388 341.126,592.346 C 343.87,592.943 351.447,592.797 356.772,592.602 C 352.686,594.68 348.189,595.991 346.107,596.945 C 340.297,599.653 334.959,602.706 330.184,604.227 C 324.432,606.064 319.5,606.221 315.551,608.073 C 308.617,611.325 304.71,616.063 304.71,627.419 C 304.71,627.419 308.545,620.711 312.951,619.754 C 317.359,618.796 318.893,623.203 325.024,622.054 C 331.157,620.904 330.2,615.921 341.125,610.938 C 352.048,605.955 360.48,602.506 360.48,602.506 C 360.48,602.506 354.347,611.321 348.981,614.772 C 343.614,618.221 333.84,625.311 339.207,643.902 C 339.207,643.902 341.316,628.57 346.873,630.678 C 352.432,632.785 358.947,629.144 361.055,621.286 C 363.163,613.429 380.794,591.198 381.752,590.239 C 382.713,589.279 388.364,589.376 392.677,593.689 C 396.99,598.001 400.535,599.438 403.793,596.18 C 407.05,592.922 411.268,591.198 414.813,600.683 C 414.815,600.683 417.919,585.504 405.903,581.997 z"
         style="fill:#e20909;fill-opacity:1;stroke:#000000;stroke-width:3;stroke-linecap:round;stroke-linejoin:round;stroke-miterlimit:4;stroke-dasharray:none" />
      <path
         id="path2525"
         d="M 191.591,149.001 C 191.591,149.001 182.391,148.869 165.862,137.083 C 165.862,137.083 169.455,155.194 191.591,158.931 L 196.047,153.154 L 191.591,149.001 z"
         style="fill:#e20909;stroke:#000000;stroke-width:3;stroke-linecap:round;stroke-linejoin:round" />
      <path
         id="path2527"
         d="M 171.18,116.529 C 171.18,116.529 190.359,125.152 189.852,153.154 L 196.046,153.154 L 198.346,134.064 C 198.347,134.064 191.735,113.654 171.18,116.529 z"
         style="fill:#e20909;stroke:#000000;stroke-width:3;stroke-linecap:round;stroke-linejoin:round" />
      <path
         id="path2529"
         d="M 196.884,162.02 C 195.226,157.614 193.669,153.468 192.979,149.001 L 192.972,149.005 C 192.972,149.005 185.889,162.093 167.3,164.393 C 167.3,164.393 181.239,175.746 196.884,162.02 z M 196.884,162.022 C 196.888,162.069 198.136,176.861 186.082,183.366 C 174.008,189.883 145.139,198.233 146.577,218.835 C 145.061,221.439 144.111,224.601 144.111,228.596 C 144.111,243.928 153.723,247.222 153.723,247.222 L 153.736,247.222 C 157.216,245.596 160.964,244.112 165.001,242.873 C 194.035,233.961 202.373,207.227 202.373,187.391 C 202.372,176.657 199.511,169.002 196.884,162.022 z"
         style="fill:#e20909;stroke:#000000;stroke-width:3;stroke-linecap:round;stroke-linejoin:round" />
      <path
         id="path2531"
         d="M 164.425,203.872 C 159.749,208.549 150.88,211.444 146.576,218.835"
         style="fill:none;stroke:#000000;stroke-width:3;stroke-linecap:round;stroke-linejoin:round" />
      <path
         id="path2533"
         d="M 205.216,126.096 C 207.516,125.619 210.205,125.297 213.296,125.297 C 221.822,125.297 249.652,133.81 266.351,174.04 L 266.361,174.049 C 269.452,177.141 275.774,182.792 281.523,184.9 C 287.273,187.008 289.764,193.141 289.764,193.141 C 291.105,188.924 292.064,184.516 288.614,175.51 C 285.164,166.503 284.589,158.644 284.589,158.644 C 299.921,157.111 310.653,164.011 310.653,164.011 C 303.371,140.822 278.648,136.988 278.648,136.988 C 287.175,128.461 311.421,131.814 311.421,131.814 C 301.263,118.59 285.737,119.357 275.963,121.273 C 266.19,123.189 255.649,122.998 255.649,122.998 C 254.308,108.241 283.821,107.283 283.821,107.283 C 273.472,100.958 256.99,100.001 245.3,105.942 C 233.609,111.883 225.943,110.733 225.943,110.733 C 227.477,102.684 246.833,94.635001 246.833,94.635001 C 216.936,89.652001 211.186,110.925 211.186,110.925 C 200.07,105.943 208.311,91.569001 208.311,91.569001 C 208.311,91.569001 196.045,95.210001 196.045,107.284 C 196.047,115.618 201.71,122.581 205.216,126.096 z"
         style="fill:#e20909;stroke:#000000;stroke-width:3;stroke-linecap:round;stroke-linejoin:round" />
      <path
         style="stroke:#000000;stroke-width:3;stroke-linecap:round;stroke-linejoin:round"
         d="M 454.486,210.389 C 495.594,210.389 508.531,250.922 508.531,250.922 C 519.167,225.625 512.267,197.165 491.57,186.241 C 470.872,175.317 433.07,168.561 392.391,209.239 C 351.714,249.916 348.983,320.779 348.983,320.779 C 343.233,298.93 350.421,253.51 362.781,223.037 C 375.143,192.565 407.052,158.643 448.161,158.643 C 489.269,158.643 511.119,181.929 511.119,181.929 C 501.345,141.395 476.909,127.021 446.149,127.021 C 428.039,127.021 399.291,133.345 373.13,153.469 C 346.97,173.592 328.284,214.126 328.284,276.508 C 328.284,310.143 333.842,333.237 336.333,341.286 C 338.825,349.335 335.374,348.76 326.942,340.327 C 304.903,318.287 277.497,301.998 269.831,294.332 C 262.164,286.665 266.19,262.327 266.19,262.327 C 271.365,267.501 275.389,276.126 275.389,276.126 C 277.689,250.828 268.873,226.296 268.873,226.296 C 274.814,232.237 279.223,242.395 279.223,242.395 C 276.156,142.353 225.369,125.297 213.295,125.297 C 201.221,125.297 195.184,130.184 195.184,130.184 C 193.846,131.07 193.463,134.636 192.92,143.947 C 192.824,145.579 192.731,147.477 192.968,149.01 C 194.754,160.548 202.37,169.882 202.37,187.391 C 202.37,207.227 194.033,233.961 164.998,242.873 C 135.963,251.785 121.302,273.058 121.302,273.058 C 129.639,267.308 138.263,267.308 138.263,267.308 C 112.822,282.976 109.228,306.117 109.228,306.117 C 114.69,295.481 122.069,290.69 122.069,290.69 C 107.887,320.204 112.87,346.268 112.87,346.268 C 114.787,331.319 119.386,322.503 119.386,322.503 C 119.386,322.503 127.052,380.764 187.613,426.76 C 195.751,432.94 203.504,438.307 210.835,442.981 C 211.567,451.826 214.494,475.454 225.177,481.956 C 238.401,490.006 255.84,495.946 261.59,486.173 C 264.539,481.159 265.52,474.638 265.778,469.468 C 279.817,473.829 287.655,474.099 287.655,474.099 C 292.447,480.997 308.592,500.306 316.857,508.571 C 325.123,516.837 326.273,517.986 332.74,517.986 C 339.209,517.986 348.408,513.531 348.408,513.531 C 361.345,506.343 358.9,493.407 358.9,493.407 C 371.119,505.625 390.667,511.23 390.667,511.23 C 382.186,499.158 377.587,495.995 377.587,495.995 C 389.805,499.301 407.627,512.668 407.627,512.668 C 399.69,498.116 395.982,496.042 394.981,495.753 C 407.12,497.525 429.333,512.093 429.333,512.093 C 423.439,500.45 409.495,492.258 409.495,492.258 C 424.732,493.265 445.143,507.781 445.143,507.781 C 437.955,493.839 424.301,485.358 424.301,485.358 C 438.674,487.801 454.27,500.522 454.27,500.522 C 443.274,480.327 429.332,475.583 429.332,475.583 C 440.974,479.752 452.761,477.165 452.761,477.165 C 426.457,454.599 414.167,436.975 414.167,436.975 C 427.722,432.645 433.116,450.527 433.116,450.527 C 433.116,450.527 438.291,440.754 432.159,431.17 C 426.026,421.587 408.586,423.121 408.586,423.121 C 412.707,419.001 420.659,414.689 430.626,420.438 C 440.59,426.188 440.781,439.412 440.781,439.412 C 447.68,425.806 445.765,414.689 433.307,404.915 C 420.849,395.141 402.834,403.381 402.834,403.381 C 405.709,398.015 416.633,387.474 432.731,393.224 C 448.829,398.974 451.513,417.947 451.513,417.947 C 456.304,411.239 456.688,394.182 449.98,381.917 C 443.271,369.651 426.982,370.035 415.099,374.059 C 403.217,378.084 395.359,386.325 395.359,386.325 C 395.359,386.325 406.668,360.644 434.84,360.644 C 463.012,360.644 465.982,391.787 465.982,391.787 C 479.495,371.951 471.157,352.403 460.808,345.216 C 450.459,338.029 430.912,337.741 417.399,344.066 C 403.888,350.391 388.939,366.489 388.939,366.489 C 394.402,354.128 423.15,317.906 450.747,317.906 C 478.345,317.906 484.668,344.066 484.668,344.066 C 493.58,335.155 496.024,314.313 482.369,300.658 C 468.714,287.004 440.11,290.309 418.262,304.395 C 396.414,318.481 378.016,352.403 378.016,352.403 C 385.779,315.031 422.575,266.161 455.634,266.161 C 488.693,266.161 499.905,296.633 499.905,296.633 C 512.265,269.035 497.605,248.624 482.369,240.863 C 467.133,233.101 430.336,231.377 404.465,257.249 C 378.592,283.122 364.89,336.304 364.89,336.304 C 363.164,324.805 367.093,300.082 376.867,275.934 C 386.643,251.785 413.377,210.389 454.486,210.389 z"
         id="path2535" />
      <circle
         transform="translate(-2.038,-2.045)"
         id="circle2539"
         r="9.0080004"
         cy="151.873"
         cx="214.759"
         sodipodi:cx="214.759"
         sodipodi:cy="151.873"
         sodipodi:rx="9.0080004"
         sodipodi:ry="9.0080004"
         style="fill:#ffffff" />
      <circle
         transform="translate(-2.038,-2.045)"
         id="circle2541"
         r="3.8329999"
         cy="151.873"
         cx="214.758"
         sodipodi:cx="214.758"
         sodipodi:cy="151.873"
         sodipodi:rx="3.8329999"
         sodipodi:ry="3.8329999" />
      <path
         id="path2545"
         d="M 214.445,300.08 C 200.646,300.08 184.548,307.555 184.548,329.403 C 184.548,351.251 213.583,378.274 259.291,410.47 C 305,442.668 361.284,462.362 423.665,475.155"
         style="fill:none;stroke:#ffffff;stroke-width:3.5;stroke-linecap:round;stroke-linejoin:round" />
      <path
         id="path2547"
         d="M 317.073,421.395 C 317.073,421.395 362.36,447.235 423.305,456.146"
         style="fill:none;stroke:#ffffff;stroke-width:3.5;stroke-linecap:round;stroke-linejoin:round" />
      <path
         id="path2549"
         d="M 342.371,410.184 C 342.371,410.184 370.832,425.612 409.065,435.387"
         style="fill:none;stroke:#ffffff;stroke-width:3.5;stroke-linecap:round;stroke-linejoin:round" />
    </g>
  </g>
  <g
     inkscape:groupmode="layer"
     id="layer2"
     inkscape:label="Riflesso"
     style="display:inline"
     sodipodi:insensitive="true">
    <path
       sodipodi:nodetypes="cccccc"
       d="M 300.00001,658.5 C 300.00001,658.5 598.50001,546.17969 598.50001,260.72817 C 598.50001,-24.723334 598.50001,2.1764865 598.50001,2.1764865 L 1.5,2.1764865 L 1.5,260.72817 C 1.5,546.17969 300.00001,658.5 300.00001,658.5 z"
       style="opacity:1;fill:url(#radialGradient3163);fill-opacity:1;fill-rule:evenodd;stroke:none;stroke-width:1px;stroke-linecap:butt;stroke-linejoin:miter;stroke-opacity:1"
       id="path2875"
       inkscape:export-xdpi="144"
       inkscape:export-ydpi="144" />
  </g>
  <g
     inkscape:groupmode="layer"
     id="layer1"
     inkscape:label="Contorno"
     sodipodi:insensitive="true"
     style="display: inline;">
    <path
       sodipodi:nodetypes="cccccc"
       d="M 299.99999,658.50028 C 299.99999,658.50028 1.5,546.17992 1.5,260.72828 C 1.5,-24.723336 1.5,2.1764957 1.5,2.1764957 L 598.49999,2.1764957 L 598.49999,260.72828 C 598.49999,546.17992 299.99999,658.50028 299.99999,658.50028 z"
       style="opacity: 1; fill: none; fill-opacity: 1; fill-rule: evenodd; stroke: rgb(0, 0, 0); stroke-width: 3; stroke-linecap: butt; stroke-linejoin: miter; stroke-miterlimit: 4; stroke-dasharray: none; stroke-opacity: 1;"
       id="path1411"
       inkscape:export-xdpi="144"
       inkscape:export-ydpi="144" />
  </g>
</svg>
