<?xml version="1.0" encoding="UTF-8" standalone="no"?>
<svg
   xmlns:dc="http://purl.org/dc/elements/1.1/"
   xmlns:cc="http://creativecommons.org/ns#"
   xmlns:rdf="http://www.w3.org/1999/02/22-rdf-syntax-ns#"
   xmlns:svg="http://www.w3.org/2000/svg"
   xmlns="http://www.w3.org/2000/svg"
   xmlns:xlink="http://www.w3.org/1999/xlink"
   xmlns:sodipodi="http://sodipodi.sourceforge.net/DTD/sodipodi-0.dtd"
   xmlns:inkscape="http://www.inkscape.org/namespaces/inkscape"
   height="660"
   width="600"
   version="1.0"
   id="svg2"
   sodipodi:version="0.32"
   inkscape:version="0.46"
   sodipodi:docname="torre.svg"
   sodipodi:docbase="C:\Documents and Settings\Moi\Bureau\PROVISOIRE\HERALDIQUE\A insérer"
   inkscape:export-filename="/Users/olivier/Desktop/Blason Rouge/Blason_Vide_3D.png"
   inkscape:export-xdpi="144"
   inkscape:export-ydpi="144"
   inkscape:output_extension="org.inkscape.output.svg.inkscape">
  <metadata
     id="metadata49">
    <rdf:RDF>
      <cc:Work
         rdf:about="">
        <dc:format>image/svg+xml</dc:format>
        <dc:type
           rdf:resource="http://purl.org/dc/dcmitype/StillImage" />
        <dc:title>Blason de Semur-en-Auxois</dc:title>
        <dc:date>21  nov 2006</dc:date>
        <dc:creator>
          <cc:Agent>
            <dc:title>Orror (Utlisateur Wikipedia : http://fr.wikipedia.org/wiki/Utilisateur:Orror)</dc:title>
          </cc:Agent>
        </dc:creator>
        <cc:license
           rdf:resource="http://creativecommons.org/licenses/by-sa/2.5/" />
        <dc:language>fr</dc:language>
        <dc:subject>
          <rdf:Bag />
        </dc:subject>
        <dc:description />
        <dc:source />
      </cc:Work>
      <cc:License
         rdf:about="http://creativecommons.org/licenses/by-sa/2.5/">
        <cc:permits
           rdf:resource="http://web.resource.org/cc/Reproduction" />
        <cc:permits
           rdf:resource="http://web.resource.org/cc/Distribution" />
        <cc:requires
           rdf:resource="http://web.resource.org/cc/Notice" />
        <cc:requires
           rdf:resource="http://web.resource.org/cc/Attribution" />
        <cc:permits
           rdf:resource="http://web.resource.org/cc/DerivativeWorks" />
        <cc:requires
           rdf:resource="http://web.resource.org/cc/ShareAlike" />
      </cc:License>
    </rdf:RDF>
  </metadata>
  <sodipodi:namedview
     inkscape:window-height="744"
     inkscape:window-width="1280"
     inkscape:pageshadow="2"
     inkscape:pageopacity="0.0"
     guidetolerance="10.0"
     gridtolerance="10.0"
     objecttolerance="10.0"
     borderopacity="1.0"
     bordercolor="#666666"
     pagecolor="#ffffff"
     id="base"
     showgrid="false"
     height="660px"
     inkscape:zoom="0.81666667"
     inkscape:cx="159.18367"
     inkscape:cy="330"
     inkscape:window-x="-4"
     inkscape:window-y="-4"
     inkscape:current-layer="layer4"
     showguides="true"
     inkscape:guide-bbox="true" />
  <desc
     id="desc4">Flag of Canton of Valais (Wallis)</desc>
  <defs
     id="defs6">
    <inkscape:perspective
       sodipodi:type="inkscape:persp3d"
       inkscape:vp_x="0 : 330 : 1"
       inkscape:vp_y="0 : 1000 : 0"
       inkscape:vp_z="600 : 330 : 1"
       inkscape:persp3d-origin="300 : 220 : 1"
       id="perspective23" />
    <linearGradient
       id="linearGradient2893">
      <stop
         style="stop-color: white; stop-opacity: 0.313726;"
         offset="0"
         id="stop2895" />
      <stop
         id="stop2897"
         offset="0.19"
         style="stop-color: white; stop-opacity: 0.25098;" />
      <stop
         style="stop-color: rgb(107, 107, 107); stop-opacity: 0.12549;"
         offset="0.60000002"
         id="stop2901" />
      <stop
         style="stop-color: black; stop-opacity: 0.12549;"
         offset="1"
         id="stop2899" />
    </linearGradient>
    <radialGradient
       inkscape:collect="always"
       xlink:href="#linearGradient2893"
       id="radialGradient3163"
       gradientUnits="userSpaceOnUse"
       gradientTransform="matrix(1.35322, 0, 0, 1.34893, -77.6293, -85.7469)"
       cx="101.2682"
       cy="118.21075"
       fx="101.2682"
       fy="118.21075"
       r="300" />
  </defs>
  <g
     inkscape:groupmode="layer"
     id="layer3"
     inkscape:label="Sfondo"
     style="display:inline"
     sodipodi:insensitive="true">
    <path
       id="path2855"
       style="fill:#ffffff;fill-opacity:1;fill-rule:evenodd;stroke:none;stroke-width:1px;stroke-linecap:butt;stroke-linejoin:miter;stroke-opacity:1"
       d="M 300,658.5 C 300,658.5 598.50001,546.17969 598.50001,260.72817 C 598.50001,-24.723354 598.50001,2.1764765 598.50001,2.1764765 L 1.5,2.1764765 L 1.5,260.72817 C 1.5,546.17969 300,658.5 300,658.5 z"
       sodipodi:nodetypes="cccccc" />
  </g>
  <g
     inkscape:groupmode="layer"
     id="layer4"
     inkscape:label="Torre Merlata"
     style="display:inline"
     sodipodi:insensitive="true">
    <g
       id="g2404"
       transform="translate(505.71428,-41.632653)">
      <g
         transform="translate(-506.72232,42.706595)"
         id="g2398"
         style="display:inline">
        <path
           id="path2400"
           style="opacity:1;fill:#f9f9f9;fill-opacity:1;stroke:none;stroke-width:7;stroke-miterlimit:4;stroke-dasharray:none;stroke-opacity:1"
           d="M 284.0079,33.200501 C 277.2556,32.683869 276.0988,31.784475 275.53481,38.135001 C 274.15742,46.250763 277.40209,57.061251 277.73778,65.216733 C 276.79498,65.823785 268.97964,72.505356 262.71033,69.071134 C 257.03804,65.963957 263.48244,37.501853 252.21817,37.76871 C 241.48218,38.023026 231.8009,39.50907 225.78018,39.538826 C 217.99649,39.57719 228.83145,48.986903 225.8117,53.653599 C 219.12787,63.982837 226.45331,67.973682 219.37536,70.076741 C 209.10921,69.663951 211.3109,59.911535 211.28324,53.764015 C 213.28048,47.398509 217.02495,39.139186 209.80092,36.850269 C 190.96087,38.710264 195.88085,33.884078 189.90866,35.709843 C 175.19121,42.200271 174.70266,45.766938 176.58487,74.183018 C 176.66784,81.933777 174.98622,89.884287 176.20274,97.73421 C 177.14466,109.48747 183.67176,121.16753 195.07825,125.37934 C 191.68152,202.53344 189.05935,279.73072 185.58793,356.87465 C 183.16525,369.96986 170.35644,376.74205 162.39175,386.1902 C 160.3613,389.28721 157.98513,391.76598 154.91386,393.83684 C 145.28389,402.75277 145.88849,417.15615 145.76939,429.27381 C 146.03478,435.93579 144.99003,442.5386 144.42793,449.07885 C 145.48237,464.56667 141.05758,513.93682 146.88593,529.00677 C 160.02934,538.95908 172.05974,528.36461 188.47237,534.25097 C 200.90456,538.44563 209.49126,535.28294 222.49578,537.38092 C 246.71819,537.44091 254.40332,540.7355 269.20022,541.05 C 292.35233,541.60534 315.7577,539.30598 338.68292,543.25291 C 362.00782,543.73802 424.65358,539.71489 446.72867,533.44313 C 449.55204,516.91655 449.17587,542.07269 449.27206,496.29334 C 447.3079,465.88468 448.03662,434.22214 445.51254,403.85578 C 432.94417,390.1828 420.13169,376.72483 407.93257,362.72082 C 404.93105,289.92229 402.08266,217.1176 399.16249,144.31583 C 395.62959,137.88661 397.05347,129.62647 402.31891,124.57444 C 408.09736,118.0451 417.5106,112.42079 416.93569,102.46069 C 415.50367,86.181582 415.07261,61.867034 414.2458,43.731592 C 408.24866,34.841493 395.99252,38.768353 386.43109,34.340181 C 381.06818,32.113487 376.03702,36.350718 368.95447,35.526359 C 366.60168,38.487872 369.37034,42.403548 368.57316,45.905416 C 368.66569,52.375983 370.52071,68.831458 357.20823,72.037189 C 356.25371,72.108292 367.40741,35.415942 356.83384,34.387018 C 345.96423,33.329286 338.7907,37.062832 335.6507,36.430633 C 330.02965,35.298884 330.59724,65.355278 328.18602,67.335179 C 320.20974,73.884576 319.46238,68.872533 315.36961,68.13995 C 310.35506,60.097866 315.70116,43.674927 315.88846,34.807941 C 315.85863,31.679821 317.18314,34.528546 313.36756,33.115503 C 301.88658,32.871624 306.22582,32.84702 293.45626,32.67194 C 288.35697,33.233239 289.00842,33.311256 284.0079,33.200501 z"
           sodipodi:nodetypes="cccsssscccccccccccccccccccccccccccccsssccccc" />
        <path
           style="opacity:1;fill:#000000;fill-opacity:1;stroke:none;stroke-opacity:1"
           d="M 305.47062,32.524287 C 299.25852,32.534805 292.8906,32.681924 284.24903,32.46655 C 262.40494,31.514817 277.06756,53.754468 273.86391,64.458512 C 272.30139,65.733357 263.58596,71.373319 261.95796,63.667094 C 258.88204,49.10741 265.76083,39.5075 259.35929,36.12364 C 252.14372,32.309486 233.31452,34.413022 230.70897,34.233386 C 213.50023,33.047004 230.79419,67.903674 217.40801,67.024078 C 207.8961,66.399054 212.63338,52.203202 212.6527,47.459644 C 216.69796,32.956524 213.25492,32.780439 197.74496,33.352707 C 171.07222,35.429323 175.84766,32.125336 175.4539,76.201487 C 175.1069,96.125028 173.97686,117.58421 193.70059,126.23409 C 190.45829,202.37201 187.57088,278.52932 184.43616,354.67243 C 183.73495,369.66551 165.55588,377.45808 158.19478,389.70466 C 138.37314,401.92751 146.70328,447.35565 142.31163,466.88272 C 143.78975,498.85731 137.36135,514.81797 146.78978,532.13316 C 175.8179,542.1062 187.32718,535.05478 212.84081,536.98109 C 231.30097,539.53253 252.1049,539.88263 269.17983,542.38875 C 292.04425,543.03394 315.91109,540.58914 338.38309,544.59884 C 358.75129,542.88431 383.42981,543.19919 401.34289,540.93342 C 426.23415,537.78501 444.86909,536.85146 450.6913,534.82684 C 448.74558,527.99531 449.42435,433.95949 446.84996,403.29434 C 434.72609,390.04242 421.41658,376.14586 409.27494,362.19613 C 406.28913,289.46892 403.43693,216.73927 400.52781,144.00883 C 391.15617,124.22838 417.53066,119.02496 417.75206,101.39517 C 411.33657,44.075078 427.57524,33.235954 405.10617,34.105604 C 395.73551,36.203106 369.5531,26.983007 366.43283,39.029007 C 369.19796,51.55183 369.29235,67.351449 361.60076,69.111062 C 354.47847,70.74044 363.43899,44.484217 361.22896,37.659965 C 358.62547,29.620952 342.94386,34.337499 337.23693,33.443322 C 324.62083,31.466545 329.87064,51.856946 327.78439,63.139125 C 326.86828,68.093226 322.66967,67.704672 318.57915,66.892173 C 313.76474,59.743544 320.55138,46.697659 319.47267,36.463516 C 315.2661,31.822236 310.30222,32.516102 305.47062,32.524287 z M 284.62525,36.36947 C 289.91044,36.311688 296.7725,38.308403 302.44869,37.73314 C 322.30266,34.289513 313.72554,42.179602 311.00771,57.695157 C 310.93943,60.604135 310.84083,63.53254 310.77257,66.441458 C 292.08975,69.033102 299.03905,67.74062 279.00945,65.069812 C 279.00945,57.167685 277.65719,51.948961 277.65719,44.046909 C 277.0164,35.200588 279.34007,36.427252 284.62525,36.36947 z M 252.58732,39.697398 C 254.39564,39.715274 256.23781,48.968613 255.93843,49.766907 C 253.90472,55.189674 258.63055,63.287357 256.59682,66.676574 C 254.56309,70.06582 237.62434,68.947422 231.52315,66.236061 C 225.42197,63.5247 227.41956,48.843313 226.74168,41.38701 C 228.24356,39.134384 232.09991,40.014537 236.596,39.65829 C 241.99326,39.230628 248.31243,39.655145 252.58732,39.697398 z M 340.71697,40.073583 C 347.74234,40.147721 355.23962,35.925481 356.42597,40.670378 C 357.78179,46.093145 356.23164,67.473213 351.48628,68.828924 C 346.74092,70.184619 332.48715,70.989595 332.48715,66.101582 C 332.48715,57.967424 331.11624,45.05361 337.89531,40.308699 C 338.7427,40.139235 339.71335,40.06299 340.71697,40.073583 z M 205.22234,37.424323 C 208.07015,37.419342 209.2977,46.315169 206.86831,56.950702 C 208.08592,72.362956 198.6334,64.128041 185.56482,70.26118 C 175.71748,80.969813 176.30456,42.170829 182.36433,41.523174 C 188.44613,38.467047 201.06017,37.431591 205.22234,37.424323 z M 379.31838,39.264123 C 409.7887,36.845509 416.48945,44.109612 411.67334,65.715331 C 412.05935,69.223045 413.08783,66.308981 411.43821,67.638117 C 378.04502,68.259966 371.24657,80.489214 372.17019,42.179557 C 374.02941,40.18385 376.50475,39.295015 379.31838,39.264123 z M 274.70243,71.614002 C 281.92127,71.618275 288.7095,72.274282 293.9367,72.225302 C 299.73828,72.171026 299.66924,80.117107 298.04259,89.442974 C 289.74311,96.227515 266.64943,90.634246 254.29643,95.355774 C 249.89678,83.932977 249.49986,76.298769 252.83461,74.999667 C 259.85498,72.264817 267.4836,71.609743 274.70243,71.614002 z M 310.34932,71.708048 C 318.17314,71.435359 339.79861,72.779558 343.82079,74.753837 C 348.38585,79.366618 345.8864,90.705571 340.89686,93.864532 C 333.31515,94.297852 312.64702,93.925323 305.09673,91.04176 C 301.1321,86.054796 302.65397,74.842482 307.90389,72.03721 C 308.3963,71.838464 309.23163,71.747006 310.34932,71.708048 z M 236.28091,75.328829 C 242.14119,75.231306 246.70604,76.914945 247.14428,81.300765 C 256.9171,103.48725 232.39147,89.880086 218.57817,93.961347 C 205.97476,102.10483 210.72603,80.925438 207.88958,74.01185 C 211.17999,73.21178 214.74775,71.045692 222.47678,73.020708 C 227.10953,74.204532 232.08813,75.398618 236.28091,75.328829 z M 357.03553,75.082999 C 365.48794,75.127269 385.04974,71.23085 387.01874,74.812221 C 384.29582,77.202305 387.05877,95.520197 383.50383,96.57183 C 376.80753,95.666609 353.84265,97.844509 348.76262,94.28774 C 346.50303,88.347508 351.06375,80.468268 354.26091,75.412161 C 354.88938,75.162796 355.82805,75.076679 357.03553,75.082999 z M 392.15691,74.13247 C 396.84434,73.88166 407.02993,71.904702 412.47281,77.089766 C 412.63802,81.454836 412.94708,92.876941 410.00467,96.202582 C 406.13282,97.725529 395.87807,100.57763 391.59257,93.929206 C 389.92634,90.883191 388.90132,77.303589 390.88716,74.602701 C 391.24264,74.334226 391.672,74.158412 392.15691,74.13247 z M 198.90849,74.461632 C 211.26422,93.448215 210.92007,96.81611 181.7329,99.069608 C 177.27833,76.998157 180.12018,73.968122 198.90849,74.461632 z M 294.37607,95.285939 C 304.51414,95.057083 318.06369,96.658142 324.62533,98.401564 C 328.34195,99.38914 322.05165,111.67512 320.4869,118.56031 C 307.91959,116.30353 295.13769,117.40041 282.4416,117.21346 C 280.41326,111.93789 278.05967,101.12341 281.0778,99.000766 C 284.70261,96.451541 288.29325,95.423262 294.37607,95.285939 z M 262.05597,99.869994 C 263.32384,99.845241 264.52774,99.851546 265.6771,99.869994 C 268.74204,99.919199 272.54387,98.79397 273.97664,99.000766 C 276.06879,109.08737 275.61616,114.97524 273.78853,118.15392 C 270.32202,120.91922 253.35952,121.22218 248.06445,120.22294 C 245.95091,116.0769 240.16418,104.62381 240.82221,101.31838 C 243.42957,96.891362 253.18098,100.04322 262.05597,99.869994 z M 355.76973,99.896974 C 357.73067,103.81294 349.16046,114.81041 346.86936,121.1936 C 340.66309,121.36958 332.91823,121.22364 327.39995,118.41924 C 325.27342,112.66223 325.92995,99.631779 332.97516,97.497411 C 340.4488,99.531022 349.94889,98.457495 355.76973,99.896974 z M 225.91447,99.896974 C 231.20079,99.726848 235.4643,99.164602 235.97837,102.89574 C 248.87539,128.02688 236.11926,118.12183 222.66957,119.98935 C 214.5611,124.19225 210.65897,111.00618 205.69262,106.43736 C 197.79539,100.28214 214.28458,100.27126 225.91447,99.896974 z M 367.9969,100.62653 C 368.44723,100.64942 368.84102,100.76333 369.26664,100.90867 C 377.81837,102.28725 389.74238,97.267998 392.7334,103.27609 C 394.70542,107.23726 392.90911,116.31834 385.65261,121.83799 C 382.38441,122.25624 356.77252,124.15365 354.9581,120.6017 C 352.78933,114.33601 361.24163,100.28348 367.9969,100.62653 z M 193.64303,101.51481 C 207.87992,111.51501 219.90494,128.1008 200.98986,121.95499 C 192.60436,125.78004 177.26001,109.71533 182.10183,107.65063 C 183.07954,104.26742 191.46611,101.60983 193.64303,101.51481 z M 398.85914,103.53819 C 412.71633,100.53231 415.57716,106.66409 395.2137,123.88294 C 389.9882,125.35421 391.11434,118.58466 393.10962,116.86578 C 395.17877,111.69418 396.96648,103.43582 398.85914,103.53819 z M 296.78501,122.66342 C 298.05359,122.59065 299.60832,122.80635 301.53479,123.36877 C 300.08714,132.06723 305.65244,148.29728 300.69883,153.43072 C 294.59079,154.91569 290.1937,152.36306 290.66089,146.96574 C 291.68871,138.778 287.90499,123.17305 296.78501,122.66342 z M 278.3502,124.17288 C 285.33147,124.02167 288.44396,121.58506 284.54731,132.66138 C 292.21224,162.60254 279.00167,153.81083 242.71547,151.6238 C 235.36149,153.78683 239.20237,140.13983 239.37651,139.82099 C 235.83921,123.04644 245.65858,123.54621 261.89056,124.83121 C 266.31339,125.65617 272.92035,124.29048 278.3502,124.17288 z M 317.57119,124.4382 C 322.75866,124.43561 328.83735,125.54449 334.12489,126.17806 C 357.48625,121.61838 354.31884,134.16449 354.1935,150.97759 L 354.09945,153.75195 L 351.27779,153.28172 C 316.48164,152.4209 307.00547,160.41273 304.95727,137.03453 C 300.8203,123.38454 308.92539,124.44246 317.57119,124.4382 z M 228.97126,124.40952 C 233.48033,124.48385 235.47318,127.59966 233.78023,134.60142 C 240.69273,164.29195 216.76205,150.57328 200.75473,157.08126 C 194.36957,156.29273 200.9551,136.75937 199.29687,130.04297 C 204.84826,128.22503 220.36305,124.26758 228.97126,124.40952 z M 363.04684,127.96868 C 365.1997,127.83888 368.18663,124.18969 372.31127,126.50273 C 393.83422,126.35422 396.00314,126.348 395.26072,156.98722 C 387.98844,159.08078 371.5979,155.67395 360.73033,154.69241 C 360.93757,145.28997 353.71776,128.53105 363.04684,127.96868 z M 279.56239,160.78915 C 290.61322,160.48726 305.79632,162.07745 314.31576,160.36733 C 330.233,158.44396 322.84032,170.8427 325.18966,181.02675 C 316.73348,181.02672 308.29794,182.96541 299.8418,182.96541 C 292.37793,182.96749 284.92028,182.98374 277.45668,183.05945 C 263.5139,188.36532 269.44624,173.94112 268.23928,166.07201 C 266.77549,155.54507 270.96731,161.02395 279.56239,160.78915 z M 256.11833,160.56752 C 261.38737,160.4862 265.18754,157.7251 262.50192,167.01247 C 270.48735,195.46894 235.01717,179.78853 218.95439,186.42231 C 212.08245,190.37962 216.75416,174.84072 215.3803,171.65843 C 210.36033,155.47906 225.67053,161.71491 237.68352,159.38261 C 243.46257,158.69759 250.8493,160.64882 256.11833,160.56752 z M 337.26358,158.65307 C 342.54721,158.73636 350.00436,159.42046 355.79244,160.10007 C 367.7722,162.45832 383.30442,156.63619 378.09566,172.97508 C 376.75733,176.5837 381.76041,190.69672 373.15777,184.91895 C 357.04903,179.11186 323.81529,191.67671 329.03538,170.40885 C 326.28237,161.02305 331.97994,158.56977 337.26358,158.65307 z M 205.45748,161.0312 C 208.69718,161.14525 211.16738,163.47991 209.54888,169.30727 C 208.06893,175.51801 213.50663,186.87785 204.18774,187.27011 C 193.1711,192.39035 197.33902,186.81079 196.52225,178.89999 C 195.5709,174.13255 195.56917,167.05751 198.12118,164.22878 C 199.94594,162.20621 202.93772,160.94249 205.45748,161.0312 z M 388.58281,162.34785 C 395.0915,162.36808 399.79242,177.00453 396.38939,185.26161 C 396.08721,190.27292 387.53452,183.80453 384.02114,183.75687 C 383.97065,176.59283 383.88353,172.66238 383.83303,165.4984 C 385.4496,163.26167 387.0808,162.34319 388.58281,162.34785 z M 270.70541,224.34295 C 271.27887,224.31576 280.47565,225.19519 287.93658,224.77587 C 297.18387,224.25615 292.03438,235.91994 292.38216,240.30983 C 287.97981,241.81719 249.80439,241.83166 247.23865,241.33237 C 240.12187,244.73711 245.46484,235.53153 243.41975,233.14372 C 242.85921,224.34645 246.92444,225.40003 258.90712,224.75644 C 261.00835,224.28022 268.98501,224.42454 270.70541,224.34295 z M 303.46292,189.68972 C 306.72817,189.66611 309.218,190.42117 309.15326,193.63966 C 310.97091,207.41606 311.33168,218.35385 305.96346,219.46 C 297.60566,219.22602 285.35685,221.28933 286.61873,217.12672 C 288.56011,209.84235 278.3485,187.35511 290.53034,190.0659 C 293.73106,191.00672 299.26474,189.72007 303.46292,189.68972 z M 299.10763,225.0856 C 311.08575,222.66583 342.40003,223.80377 348.32452,223.00374 C 350.92206,229.88509 349.62329,230.2744 349.19037,237.58865 C 345.23425,241.46099 313.08937,235.7515 302.76993,239.23127 C 294.22171,237.54474 297.75031,234.26087 299.10763,225.0856 z M 227.41935,190.56034 C 227.9105,190.53684 228.3657,190.55037 228.83018,190.56034 C 235.38751,190.70119 239.11793,195.00228 235.03782,206.9593 C 239.56696,226.34649 210.93889,211.32539 200.28445,218.58751 C 191.16548,224.28905 194.28923,190.88588 202.82394,193.99442 C 209.85816,192.27624 220.05205,190.91298 227.41935,190.56034 z M 358.39112,189.05699 C 371.21191,190.9699 385.02659,186.2467 395.2792,193.35999 C 399.0882,196.00269 400.15305,207.78196 397.6121,216.80063 C 396.1415,225.60154 371.41862,212.89153 362.43549,215.53101 C 353.05667,214.02375 361.46184,194.81558 358.39112,189.05699 z M 233.09273,221.81778 C 234.96146,221.8843 237.52954,222.35019 239.31733,228.50939 C 236.75951,237.05527 244.15632,250.52363 226.76097,247.13055 C 202.78719,251.26479 217.7868,233.94401 213.64028,221.78508 C 234.55337,219.88217 229.97819,221.70691 233.09273,221.81778 z M 357.04293,221.21464 C 376.75041,222.37292 372.15559,220.90388 377.53242,221.36187 C 381.56918,226.17407 379.57885,230.12861 380.2119,247.13055 L 379.97677,248.16506 L 376.49673,247.97696 C 362.75955,249.25178 350.50659,249.42201 355.00513,233.2117 C 354.53385,225.37146 355.22646,227.30236 357.04293,221.21464 z M 202.40069,222.86661 C 203.70723,222.84609 205.07375,223.22503 206.35101,224.18326 C 211.59897,228.1205 209.63546,247.94541 204.18774,246.23711 C 202.01249,247.28754 196.17296,248.45618 195.34656,247.60078 C 194.00599,243.71345 193.13506,231.25938 196.94549,225.87609 C 198.19674,224.10836 200.22314,222.90082 202.40069,222.86661 z M 390.69905,223.00768 C 393.68368,223.06172 396.77096,224.96862 398.59968,227.71 C 401.64222,234.17121 399.16865,239.38582 398.74076,245.86092 C 395.34914,249.4427 388.44131,250.33483 385.33791,247.55375 C 381.44872,244.06837 382.24569,231.63558 384.58547,226.76953 C 386.14418,224.0516 388.37767,222.96566 390.69905,223.00768 z M 278.28382,277.57309 C 278.01877,289.95748 279.90873,281.98956 278.3502,288.74601 C 269.88159,288.88653 261.42394,289.02871 252.95532,289.16922 C 245.54244,287.91553 236.62151,292.3183 227.41935,288.41685 C 224.05843,283.89419 226.7342,262.1138 225.82042,252.86737 C 225.51118,251.77759 241.3458,249.7359 238.4238,256.81731 C 239.46985,264.70254 233.71719,281.18815 248.06445,276.61405 C 264.60604,281.16179 270.6582,275.13423 278.28382,277.57309 z M 206.82128,251.40965 C 210.171,251.44829 213.90962,251.88228 217.63762,252.35011 C 220.76535,257.73791 225.47344,284.27898 217.44951,289.16922 C 211.25403,292.94512 197.98439,293.2048 194.26492,289.54541 C 188.66575,284.03675 192.77527,263.66785 195.39358,256.30006 C 196.77142,252.42291 201.23843,251.34526 206.82128,251.40965 z M 323.94221,278.19298 C 331.40597,278.68066 356.00649,283.1764 355.00513,271.81769 C 356.71045,266.29666 351.35889,253.20849 358.10895,253.10248 C 375.61609,248.86119 364.07876,272.19369 366.99716,281.88064 C 366.80246,284.94051 367.08032,288.07431 366.47986,291.09717 C 350.55492,290.71606 332.49583,291.86012 317.33605,289.82754 C 313.78379,287.10317 314.2837,284.60029 314.74954,277.83975 C 317.62867,276.94952 321.50315,278.02029 323.94221,278.19298 z M 289.63682,245.3196 C 293.28458,245.24285 299.73398,244.11492 302.79621,243.43711 C 317.47887,240.2862 305.6807,271.99418 309.10623,280.32887 L 309.10623,281.26934 C 313.52139,295.68961 297.3399,287.85116 289.11952,288.55792 C 277.67826,288.55074 288.28304,266.89185 284.79298,259.16847 C 283.44564,253.96384 285.98908,245.39635 289.63682,245.3196 z M 386.18441,252.86737 C 401.72136,253.10355 401.24402,269.81048 400.29267,285.40737 C 405.236,299.86842 381.21696,289.183 374.61562,291.33228 C 374.62417,284.46906 366.37564,254.19139 378.51891,253.85485 C 381.43676,253.16499 383.96484,252.83363 386.18441,252.86737 z M 267.86306,292.50786 C 268.65193,292.48562 269.44613,292.49698 270.26146,292.50786 C 278.64767,292.6198 288.14223,294.42851 292.36442,296.41078 C 294.5496,299.68612 296.77693,328.99868 292.78767,330.31445 C 283.42217,332.19815 261.61744,334.08312 257.28186,329.1859 C 252.72143,324.03466 252.54203,299.88711 255.68292,296.0346 C 257.60044,293.68267 262.34097,292.66351 267.86306,292.50786 z M 238.84705,293.68344 C 255.18265,292.98384 249.49343,315.25399 251.02719,330.50255 C 245.2775,331.26747 239.4539,330.75196 233.67402,330.92576 C 227.80223,329.20343 213.72249,335.45027 216.46193,325.33 C 219.32867,313.69033 209.16795,289.1078 230.42912,295.47032 C 233.74759,294.34521 236.5134,293.78339 238.84705,293.68344 z M 322.97936,295.28223 C 328.66468,295.26461 333.70706,296.09238 336.57033,298.95003 C 341.63118,305.76981 339.78983,324.65848 335.72383,331.25492 C 330.29998,333.59798 309.21291,334.30001 303.0867,332.14836 C 295.44348,326.75195 302.41546,307.69295 301.25263,297.02208 C 307.32794,296.72023 315.66964,295.3049 322.97936,295.28223 z M 359.61383,295.28223 C 365.46107,295.24235 371.34219,295.84426 373.29885,297.2572 C 378.79539,302.04692 377.28461,313.82082 376.91998,324.24847 C 376.98702,326.93144 377.04104,329.60643 377.10809,332.28943 C 366.60207,332.26482 356.10479,332.34606 345.59962,332.19538 C 343.31203,326.61457 338.71733,303.92031 346.258,297.16315 C 347.98841,295.98186 353.76658,295.32212 359.61383,295.28223 z M 203.85855,295.37627 C 215.03127,295.27373 211.37376,309.59852 210.7716,321.52113 L 210.72457,322.60266 L 210.72457,323.82526 C 213.94619,334.93134 201.84775,330.4153 195.01736,331.25492 C 188.4742,329.3166 189.75217,299.58389 196.00494,297.02208 C 199.20592,295.90757 201.78953,295.39526 203.85855,295.37627 z M 386.84279,297.82148 C 387.94628,297.77206 389.27062,297.96179 390.84013,298.38575 C 409.73342,293.70869 398.22236,320.82474 402.12675,331.49003 L 402.12675,332.61859 L 401.1862,332.61859 C 395.29622,330.77564 381.45384,337.05402 382.79842,327.82223 C 385.59809,319.20087 376.17575,298.29928 386.84279,297.82148 z M 296.83204,334.73463 C 301.64331,334.54154 306.17505,336.26057 307.41324,340.00122 C 309.48307,346.25418 309.14671,354.35283 307.60135,360.97353 C 307.02147,363.45796 291.02391,362.40603 287.94383,360.59735 C 283.37698,357.91561 284.56793,347.61732 286.43894,338.63755 C 289.169,336.18001 293.08995,334.8848 296.83204,334.73463 z M 273.31826,335.487 C 273.80499,335.46526 274.25116,335.45426 274.68205,335.487 C 282.15084,336.05441 281.66901,344.38797 279.90211,354.06113 C 279.83238,356.40526 279.78375,358.72348 279.714,361.06758 C 263.07439,361.06762 246.41045,361.06744 229.77073,361.06758 C 229.83275,352.93368 229.89681,344.79651 229.95884,336.66258 C 242.68382,336.68498 255.42188,336.64423 268.14522,336.42746 C 270.13134,335.84875 271.85805,335.55224 273.31826,335.487 z M 218.06087,336.14532 C 224.21271,336.2402 225.71292,341.05111 224.26851,348.88859 C 224.27739,350.05794 224.30658,351.24596 224.31553,352.41532 C 227.96564,363.77978 217.34284,360.96584 209.64294,361.06758 C 202.76978,359.14986 186.25328,366.36795 190.36163,354.10816 C 185.38811,335.5214 199.02697,335.89982 213.02892,336.85067 C 214.96379,336.34741 216.64121,336.12343 218.06087,336.14532 z M 391.54555,337.3209 C 402.37645,337.73701 405.53212,346.14852 403.34947,359.98605 L 403.44352,361.20865 L 403.53758,362.43125 C 394.53757,362.43128 385.54376,362.43111 376.54375,362.43125 C 365.36761,365.87515 370.01603,353.61653 369.20745,346.77255 C 365.70504,335.57522 375.68897,338.11509 383.31572,338.26136 C 385.4977,337.77452 387.48002,337.4682 389.28822,337.36792 C 390.07931,337.32405 390.82349,337.29315 391.54555,337.3209 z M 356.22785,337.41495 C 356.61522,337.39602 357.00176,337.40234 357.35651,337.41495 C 363.50544,337.63344 365.01809,342.49197 363.56415,350.29928 C 363.5951,354.34791 363.62729,358.38258 363.6582,362.43125 C 352.17327,362.39353 340.7165,362.5418 329.23403,362.24316 C 310.29724,367.3736 312.73339,351.2487 313.10357,337.79113 C 326.17567,337.71119 339.25266,337.92803 352.32456,338.02625 C 353.77302,337.68053 355.06572,337.47175 356.22785,337.41495 z M 249.71042,366.38119 C 256.70485,366.22315 251.97928,377.77889 253.33154,383.26249 C 253.32323,387.93048 253.35029,392.60815 253.23749,397.27538 C 238.88815,401.49036 219.19618,399.08729 201.08392,398.63906 C 203.29588,388.87695 202.96501,376.2362 204.32882,366.85142 C 218.60097,366.85139 232.8987,366.85142 247.17093,366.85142 C 248.16495,366.56465 248.98686,366.39753 249.71042,366.38119 z M 193.55951,366.42821 C 205.17938,366.50085 192.59347,389.608 196.00494,398.59203 C 193.30261,398.59093 190.67814,398.67109 188.10431,398.82715 C 181.90156,396.50883 155.71737,402.55388 161.95699,394.68911 C 171.93884,386.61883 178.46073,370.75598 190.31461,366.85142 C 191.57118,366.54456 192.63205,366.42242 193.55951,366.42821 z M 276.18694,366.47524 C 287.61576,366.4872 298.9265,370.36161 293.49308,384.06189 C 293.57558,389.39967 293.69281,394.71194 293.77524,400.04975 C 282.22541,399.9148 270.66613,399.82599 259.11593,399.72059 C 259.11596,389.59145 259.11593,379.47279 259.11593,369.34365 C 262.44125,367.85355 269.32966,366.46806 276.18694,366.47524 z M 306.75485,367.18058 C 313.43037,367.1616 322.79121,369.75306 328.15239,368.21509 C 338.75505,365.15629 332.86788,378.5753 334.36003,384.62616 C 334.36003,385.97745 334.36003,387.31893 334.36003,388.67015 C 338.57746,403.35125 327.07272,402.58107 315.31387,400.37891 C 293.69002,406.85646 300.27063,385.19929 299.08936,371.45969 C 299.71527,368.12844 302.74953,367.19196 306.75485,367.18058 z M 400.38673,367.69784 C 404.30066,367.57597 408.88916,369.37483 410.63874,372.91741 C 412.94416,380.14997 441.48274,398.46803 429.63787,399.76761 C 423.25507,399.96532 416.88308,399.97223 410.49765,400.00273 C 394.56958,405.02153 396.76037,390.03775 396.06019,378.27804 C 391.43179,371.18879 395.35454,367.85451 400.38673,367.69784 z M 340.09739,368.21509 C 356.43227,368.21506 372.76531,368.21509 389.10011,368.21509 C 390.19439,378.91866 391.10394,389.65046 392.39204,400.33189 C 384.61242,400.40217 376.79897,400.44969 369.01934,400.51998 C 359.37757,400.68343 349.73285,400.56773 340.09739,400.99021 C 340.09739,390.05719 340.09739,379.14813 340.09739,368.21509 z M 228.83018,403.62351 C 230.41059,403.6897 232.14434,404.15904 234.05024,405.12825 C 244.97409,409.13862 269.05926,396.62243 268.19225,414.62692 C 256.09542,420.60277 248.54097,433.77236 232.68644,430.33264 C 213.62609,440.13563 213.55286,402.98369 228.83018,403.62351 z M 207.90292,403.8116 C 218.74567,403.97247 213.00847,419.17576 212.6527,429.62729 C 205.53869,427.06596 164.8395,435.64192 171.26844,421.82146 C 166.37658,398.92648 187.45095,404.60168 202.16555,404.70504 C 204.45344,404.05653 206.35396,403.78862 207.90292,403.8116 z M 433.30602,404.32885 C 443.99785,404.36259 442.85614,418.03691 442.9937,429.4392 C 423.67485,435.64743 428.33237,419.78935 426.06378,405.83359 C 428.93803,404.80372 431.32606,404.32261 433.30602,404.32885 z M 157.67748,404.65802 C 162.91682,404.68191 165.8878,405.44823 166.42461,407.4794 C 168.22878,414.30627 169.56284,427.37031 165.15486,427.98149 C 157.92201,428.98441 153.66662,427.92244 151.70498,425.44224 C 148.12197,420.91213 150.41573,412.1167 152.22228,404.84611 C 153.29815,404.78658 154.31924,404.73327 155.27907,404.70504 C 156.11892,404.68035 156.929,404.6546 157.67748,404.65802 z M 365.11606,404.75206 C 376.79752,404.35749 377.38458,427.64949 371.88803,431.69631 C 368.19438,431.60898 364.37057,432.8069 360.74249,431.74334 C 344.96102,435.00342 337.32164,422.09806 325.28371,415.99059 C 324.62873,398.12386 348.36713,410.42034 359.42572,406.49192 C 361.56064,405.34311 363.44728,404.80843 365.11606,404.75206 z M 409.79224,404.89313 C 416.39553,405.13013 421.26686,407.43828 421.17291,415.6144 C 431.12974,436.03081 408.52722,429.69379 396.2483,430.89692 L 393.33259,430.99097 L 390.55797,431.08501 C 376.92607,439.55819 374.76124,406.37524 382.70437,406.20978 C 389.97483,407.72179 401.3023,404.58844 409.79224,404.89313 z M 314.56143,405.83359 C 328.18816,406.14799 313.1314,427.98559 311.50464,439.26704 C 306.09168,441.77363 297.69102,437.70651 291.18873,439.03192 C 277.99522,443.18008 279.56988,426.59998 275.66963,418.34174 C 264.31036,398.81818 296.2523,410.59065 306.80188,407.10322 C 310.04236,406.1746 312.61474,405.78868 314.56143,405.83359 z M 323.82586,421.02206 C 336.954,427.75168 344.9232,436.98082 328.90483,445.7092 C 309.82781,459.8089 320.06335,428.86087 323.82586,421.02206 z M 266.35818,421.39825 C 274.85314,421.40345 281.2006,444.91842 269.65011,448.3425 C 267.25841,443.82465 245.50683,433.83602 259.0689,427.88744 C 261.44189,423.25143 263.97959,421.39679 266.35818,421.39825 z M 160.64022,432.44868 C 166.93578,432.57946 177.62756,433.98293 179.73341,435.36412 C 183.78381,440.01968 179.11437,462.13634 179.35719,471.14316 C 169.86665,468.92975 159.23776,473.58642 150.9647,468.81066 C 146.5597,463.72308 149.90488,434.81043 156.45476,432.73082 C 156.84517,432.60686 157.4627,432.53682 158.24181,432.49571 C 158.92352,432.45973 159.74085,432.42999 160.64022,432.44868 z M 242.65628,434.61175 C 246.19449,434.59884 249.92524,436.4015 251.82666,440.01941 C 269.3156,449.47483 261.06963,457.86895 255.87103,471.66597 C 254.66413,475.16491 246.59325,470.84078 243.83197,472.23025 C 225.99884,476.84847 231.92848,454.18969 234.42646,443.68721 C 233.90038,437.63162 238.10718,434.62834 242.65628,434.61175 z M 199.3439,434.94091 C 199.97592,434.93099 200.61826,434.92636 201.27203,434.94091 C 206.02666,435.04675 211.3092,435.72899 216.32085,436.02244 C 237.62039,430.79485 223.89319,448.47054 226.24366,460.1453 C 226.1249,463.31916 226.45804,467.05049 226.00853,469.87909 C 213.9066,465.92167 176.11955,482.51 185.65888,463.24328 C 183.05164,448.60285 189.86352,435.08959 199.3439,434.94091 z M 424.69998,435.41114 C 430.98051,435.36871 434.95215,436.79877 440.23287,436.15141 C 444.33219,445.48021 449.3225,465.51357 442.18474,473.11929 C 435.68365,480.04657 423.97955,473.70929 417.72774,477.11233 C 413.30418,479.27941 415.09498,472.92541 413.60147,471.1269 C 406.25628,456.52601 414.23243,435.48186 424.69998,435.41114 z M 350.39643,435.50519 C 350.72806,435.48097 351.02904,435.49429 351.33698,435.50519 C 359.95928,435.81021 359.61936,448.43966 361.44791,455.8662 C 361.58383,462.38263 362.77943,469.98355 359.33167,473.17071 C 356.83138,474.8655 342.30366,475.12642 338.9217,473.87606 C 335.29474,471.22348 337.38493,463.37071 331.0681,457.51201 C 326.78749,449.90761 342.43284,442.67541 347.05747,436.21053 C 348.27966,435.82777 349.40154,435.57782 350.39643,435.50519 z M 393.33259,435.78732 C 393.97674,435.76356 394.59817,435.77759 395.2137,435.78732 C 401.95206,435.89383 406.82711,438.20394 406.64139,446.17943 C 407.29016,462.81953 405.98862,469.37098 399.22099,473.92693 C 392.3659,478.54176 385.76898,475.92261 378.09566,476.81153 C 374.47931,477.1216 370.84526,470.98747 367.2323,471.33681 C 367.34537,460.08523 367.95476,448.81293 363.61118,438.13848 C 371.04889,439.98481 383.67036,436.14362 393.33259,435.78732 z M 150.21226,475.29986 C 154.36713,475.00288 159.79789,477.902 161.31076,482.21226 C 161.88349,484.39587 162.40124,495.69867 161.27427,497.71917 L 146.96735,497.63306 C 144.56821,496.24117 144.58776,478.82289 146.68519,476.71055 C 147.59311,475.84504 148.8273,475.39885 150.21226,475.29986 z M 444.21642,479.74146 C 446.00271,484.9811 446.75318,492.84663 444.59264,497.93941 C 443.08919,501.48345 437.28251,501.89537 434.48171,504.33455 C 432.88706,501.7199 428.32574,485.2128 431.31871,481.60234 C 435.07743,477.06835 437.74633,481.47206 444.21642,479.74146 z M 168.82301,474.76394 C 171.70041,477.27949 187.41449,471.6395 195.78196,480.67953 C 199.21923,484.39303 194.26537,492.52263 194.50006,498.45427 C 186.78286,498.62554 178.7774,503.33152 165.9892,496.96819 C 163.40327,495.68153 167.23535,480.98208 168.82301,474.76394 z M 424.67729,482.20293 C 436.87192,513.3383 420.55875,505.71706 399.67078,505.26985 C 396.41128,507.1411 394.75659,483.97047 396.53047,482.40728 C 404.9926,474.95014 418.90913,482.81791 424.67729,482.20293 z M 212.32351,473.78201 C 219.52161,473.79104 228.99111,475.59322 232.96861,477.35577 C 238.41866,481.01426 238.48189,488.82243 235.50809,498.93938 C 235.25743,499.61859 235.87566,501.29765 234.52052,500.72626 C 224.55534,500.23212 201.84741,501.48948 200.75473,492.45019 C 200.04594,484.17793 200.9193,477.92496 204.65801,475.05163 C 206.25542,474.16808 209.05164,473.77792 212.32351,473.78201 z M 388.67687,482.87752 C 389.71313,482.88436 390.55729,482.92076 391.16933,482.97156 C 393.81658,491.3779 395.5075,499.48863 392.81529,503.28555 C 386.29619,508.59929 365.87613,503.62898 358.0149,501.0084 C 356.56675,498.93914 352.38206,481.94143 355.75757,480.74143 C 364.94859,477.47408 381.42299,482.82969 388.67687,482.87752 z M 245.33686,478.10814 C 248.62352,477.84881 253.67942,479.37332 256.01211,481.35273 C 259.75964,484.53262 257.16208,496.45647 256.15319,500.58519 C 253.80237,503.07358 247.68403,502.05752 242.89142,501.38458 C 239.38423,500.8922 241.68585,484.0027 242.79737,479.00158 C 243.33292,478.47594 244.2413,478.19458 245.33686,478.10814 z M 344.32987,478.4373 C 354.27337,478.06296 352.12614,498.82109 350.20832,502.88932 L 342.87202,503.21849 C 332.81428,505.40361 338.7952,484.22379 339.29793,479.98906 C 341.24709,478.96378 342.90937,478.49078 344.32987,478.4373 z M 146.93249,501.47824 C 157.47602,508.94176 174.63676,498.41835 178.46366,506.83371 C 180.25626,510.77558 179.06572,518.12158 176.53553,526.02986 C 174.07776,534.03293 149.33423,533.48302 149.22143,524.03169 C 148.58349,520.2865 144.15012,503.48648 146.93249,501.47824 z M 444.78075,504.94585 C 445.9526,504.87713 446.84826,505.31498 447.27321,506.45059 C 449.40864,514.17514 447.68693,522.98804 442.75608,527.72314 C 436.85135,533.39347 425.72034,532.99987 418.79453,533.98799 C 412.81073,538.09786 417.07805,513.67978 414.68311,510.8642 C 422.79776,510.81353 438.45282,505.31703 444.78075,504.94585 z M 187.84648,504.41411 C 189.41389,504.39015 195.06937,501.80651 196.9909,503.4401 C 205.40413,505.51275 212.33865,502.72531 215.3803,508.39103 C 216.67797,511.5641 216.79797,528.25956 214.0165,530.35083 C 210.1149,530.58104 185.08979,534.56056 182.74317,529.54588 C 179.23341,521.82612 182.99304,508.39529 187.84648,504.41411 z M 402.62136,511.38286 C 405.35227,511.35765 405.05073,511.05357 409.32197,508.92833 C 415.68584,540.01555 409.8948,531.90824 382.09301,536.3278 C 373.77527,538.47151 379.74902,522.02921 378.09566,515.7937 C 381.20287,512.50687 394.42863,511.4585 402.62136,511.38286 z M 228.21882,505.8988 C 235.01178,505.92997 244.80544,509.15581 249.75745,507.63866 C 260.5226,507.87194 254.87079,525.30175 255.02453,533.83192 L 252.67316,535.14857 C 240.9821,534.79922 225.66728,538.11062 220.69441,529.92762 C 218.89769,525.43868 219.49463,511.1495 222.7166,507.21545 C 224.02454,506.21782 225.9545,505.88842 228.21882,505.8988 z M 354.48783,507.26247 C 361.7371,507.18788 369.23784,508.52608 372.31127,509.7547 C 373.27596,526.6263 373.66418,538.47466 352.84186,537.87453 L 349.36182,538.39178 C 333.33355,544.12555 337.88407,526.67388 337.65196,517.46649 C 336.24929,509.74066 345.16733,507.35839 354.48783,507.26247 z"
           id="path2402"
           sodipodi:nodetypes="cccsssscccccccccccscccccccsssscccccccccccssscsccssscccccccccccccsccscccccccccccscccccccccccccccccsccsccscccccccccccccccccsccccccccccccccccccccccccccccccccccccccccccscccccccccccccccccccscccccccscccccccccccccccccscccccsccccccccccccccccsccsccccsccccccccccccsssccccccccccccccccccccccsccsscccccccccccccccccccccccccccccccccccssscccsccccccccccccccccccccsccscccccccccccccccccccccccccccccccccccccccccccccccccccccccccccssscscccccccccccccccccccccccccccccccssccccccccscccccccsccccscccccccscscccccccccccscsccscscccsccccccccccccsccscsccccccccscccccsccccccccccccccccccccccccccc" />
      </g>
    </g>
  </g>
  <g
     inkscape:groupmode="layer"
     id="layer2"
     inkscape:label="Riflesso"
     style="display:inline"
     sodipodi:insensitive="true">
    <path
       sodipodi:nodetypes="cccccc"
       d="M 300.00001,658.5 C 300.00001,658.5 598.50001,546.17969 598.50001,260.72817 C 598.50001,-24.723334 598.50001,2.1764865 598.50001,2.1764865 L 1.5,2.1764865 L 1.5,260.72817 C 1.5,546.17969 300.00001,658.5 300.00001,658.5 z"
       style="opacity:1;fill:url(#radialGradient3163);fill-opacity:1;fill-rule:evenodd;stroke:none;stroke-width:1px;stroke-linecap:butt;stroke-linejoin:miter;stroke-opacity:1"
       id="path2875"
       inkscape:export-xdpi="144"
       inkscape:export-ydpi="144" />
  </g>
  <g
     inkscape:groupmode="layer"
     id="layer1"
     inkscape:label="Contorno"
     style="display:inline"
     sodipodi:insensitive="true">
    <path
       sodipodi:nodetypes="cccccc"
       d="M 299.99999,658.50028 C 299.99999,658.50028 1.5,546.17992 1.5,260.72828 C 1.5,-24.723336 1.5,2.1764957 1.5,2.1764957 L 598.49999,2.1764957 L 598.49999,260.72828 C 598.49999,546.17992 299.99999,658.50028 299.99999,658.50028 z"
       style="opacity:1;fill:none;fill-opacity:1;fill-rule:evenodd;stroke:#000000;stroke-width:3;stroke-linecap:butt;stroke-linejoin:miter;stroke-miterlimit:4;stroke-dasharray:none;stroke-opacity:1"
       id="path1411"
       inkscape:export-xdpi="144"
       inkscape:export-ydpi="144" />
  </g>
</svg>
